:version 1.10
:name ASF
:units
  mass 1
  length 1
  angle deg
:documentation
  ASF file generated by Kaydara
:root
  axis xyz
  order  tx ty tz rx ry rz
  position 0 0 0
  orientation 0 0 0
:bonedata
  begin
    id 1
    name RightUpLegDummy
    direction -0.65628 -0.754516 0.00165102
    length 4.76918
    axis 0 0 0 xyz
  end
  begin
    id 2
    name RightUpLeg
    direction -0.145584 -0.923362 0.355256
    length 17.9961
    axis -24.7611 -13.1006 1.78531 xyz
    dof rx ry rz
  end
  begin
    id 3
    name RightLeg
    direction 0.263379 0.172355 -0.949171
    length 13.3386
    axis 89.6202 -21.1929 12.3855 xyz
    dof rx ry rz
  end
  begin
    id 4
    name RightFoot
    direction 0.224283 -0.968777 -0.105675
    length 5.86697
    axis 56.995 -39.6905 17.3365 xyz
    dof rx ry rz
  end
  begin
    id 5
    name RightToes
    direction -0.0806345 -0.9037 0.420506
    length 4.75197
    axis 146.825 -39.7828 17.6019 xyz
    dof rx ry rz
  end
  begin
    id 6
    name SpineDummy
    direction -3.39852e-014 1 9.33296e-014
    length 8.13779
    axis 0 0 0 xyz
  end
  begin
    id 7
    name Spine
    direction -0.156609 0.733703 0.661176
    length 7.14978
    axis 41.2365 5.68757 17.0844 xyz
    dof rx ry rz
  end
  begin
    id 8
    name Spine1
    direction 0 0 0
    length 0
    axis 42.8809 47.8308 -3.36039 xyz
    dof rx ry rz
  end
  begin
    id 9
    name HEadDummy
    direction 0.546431 0.701947 0.456819
    length 3.55512
    axis 42.8809 47.8308 -3.36039 xyz
  end
  begin
    id 10
    name HEad
    direction 0.23444 0.828559 0.508457
    length 7.35827
    axis 51.1864 49.2662 27.4903 xyz
    dof rx ry rz
  end
  begin
    id 11
    name LeftShoulder1Dummy
    direction 0.431183 0.475873 -0.766568
    length 2.49352
    axis 42.8809 47.8308 -3.36039 xyz
  end
  begin
    id 12
    name LeftShoulder1
    direction 0.268187 -0.383402 -0.883786
    length 4.48604
    axis -119.517 0.106469 35.1736 xyz
    dof rx ry rz
  end
  begin
    id 13
    name LeftArm
    direction 0.380567 -0.703221 -0.600541
    length 10.1142
    axis -5.41825 36.2925 7.8293 xyz
    dof rx ry rz
  end
  begin
    id 14
    name LeftForeArm
    direction 0.541071 -0.732356 -0.413396
    length 9.39839
    axis 4.65387 33.7604 7.81644 xyz
    dof rx ry rz
  end
  begin
    id 15
    name LeftHand
    direction 0.847511 -0.389379 -0.360707
    length 3.66142
    axis 7.65593 21.1436 -24.6758 xyz
    dof rx ry rz
  end
  begin
    id 16
    name RightShoulderDummy
    direction -0.692546 0.541855 0.476208
    length 2.49352
    axis 42.8809 47.8308 -3.36039 xyz
  end
  begin
    id 17
    name RightShoulder
    direction -0.870808 -0.316653 0.376065
    length 4.48602
    axis 141.571 51.133 -100.254 xyz
    dof rx ry rz
  end
  begin
    id 18
    name RightArm
    direction 0.366897 -0.87275 0.322015
    length 10.1142
    axis 92.3258 71.2036 138.917 xyz
    dof rx ry rz
  end
  begin
    id 19
    name RightForeArm
    direction 0.702487 -0.694568 0.155197
    length 9.39835
    axis 153.863 41.5092 -176.604 xyz
    dof rx ry rz
  end
  begin
    id 20
    name RightHand
    direction 0.79502 -0.601276 0.0800636
    length 3.66142
    axis 154.247 4.59222 142.9 xyz
    dof rx ry rz
  end
  begin
    id 21
    name LeftUpLegDummy
    direction 0.65628 -0.754516 0.00165102
    length 4.76919
    axis 0 0 0 xyz
  end
  begin
    id 22
    name LeftUpLeg
    direction -0.1277 -0.689368 0.713067
    length 17.9961
    axis -48.3385 -17.8675 0.791927 xyz
    dof rx ry rz
  end
  begin
    id 23
    name LeftLeg
    direction 0.109849 -0.991246 -0.0732378
    length 13.3386
    axis -2.05791 -7.30784 1.72042 xyz
    dof rx ry rz
  end
  begin
    id 24
    name LeftFoot
    direction 0.0448355 -0.272614 0.961078
    length 5.86697
    axis -18.7733 -7.89606 10.2113 xyz
    dof rx ry rz
  end
  begin
    id 25
    name LeftToes
    direction -0.18506 0.293668 0.937823
    length 4.75197
    axis 71.2267 -7.89606 10.2113 xyz
    dof rx ry rz
  end
:hierarchy
  begin
    root RightUpLegDummy SpineDummy LeftUpLegDummy
    RightUpLegDummy RightUpLeg
    RightUpLeg RightLeg
    RightLeg RightFoot
    RightFoot RightToes
    SpineDummy Spine
    Spine Spine1
    Spine1 HEadDummy LeftShoulder1Dummy RightShoulderDummy
    HEadDummy HEad
    LeftShoulder1Dummy LeftShoulder1
    LeftShoulder1 LeftArm
    LeftArm LeftForeArm
    LeftForeArm LeftHand
    RightShoulderDummy RightShoulder
    RightShoulder RightArm
    RightArm RightForeArm
    RightForeArm RightHand
    LeftUpLegDummy LeftUpLeg
    LeftUpLeg LeftLeg
    LeftLeg LeftFoot
    LeftFoot LeftToes
  end

:SAMPLES-PER-SECOND 30
:FULLY-SPECIFIED
:DEGREES
360
root  3.50941 36.7445 -16.9633 -8.32143 16.0508 5.22031
RightUpLeg  7.63698 3.70788 -6.04032
RightLeg  -32.2039 -22.7619 1.59133
RightFoot  25.1366 1.90807 -12.5631
RightToes  -1.27222e-014 -6.36111e-015 6.36111e-015
Spine  -25.1514 -21.5965 -19.9852
Spine1  15.0797 -14.1397 40.8271
HEad  -10.3919 -20.2692 -12.9382
LeftShoulder1  6.36111e-015 -1.33558e-015 6.49777e-015
LeftArm  17.171 -37.3729 -54.9181
LeftForeArm  -35.3854 -58.4098 33.6075
LeftHand  -1.0985 -0.907273 -10.1412
RightShoulder  -4.77083e-015 -6.36111e-015 -3.18055e-015
RightArm  54.3044 -43.3387 -10.6154
RightForeArm  -25.2484 1.39823 -16.4065
RightHand  4.46533 -6.59743 -17.1981
LeftUpLeg  25.2678 17.2209 2.75116
LeftLeg  -1.18775 -9.93508 -1.25756
LeftFoot  -0.251927 3.51316 -11.8918
LeftToes  9.54166e-015 4.2066e-011 -8.07781e-011
361
root  3.82551 37.5501 -15.5047 -8.39743 12.9782 4.97283
RightUpLeg  3.58844 5.86086 -3.97611
RightLeg  -35.3584 -20.1811 0.856536
RightFoot  25.809 2.26793 -13.2046
RightToes  -1.27222e-014 -6.36111e-015 6.36111e-015
Spine  -26.2848 -24.2771 -20.9294
Spine1  11.8261 -16.3027 43.3245
HEad  -3.96112 -13.0831 -15.1953
LeftShoulder1  6.36111e-015 -1.33558e-015 6.49777e-015
LeftArm  19.1025 -39.8582 -55.1143
LeftForeArm  -26.7186 -58.105 26.7372
LeftHand  -1.18933 -0.99421 -11.0706
RightShoulder  -4.77083e-015 -6.36111e-015 -3.18055e-015
RightArm  57.9403 -45.2556 -10.6761
RightForeArm  -26.6233 3.98387 -18.5848
RightHand  4.28439 -6.79037 -15.9926
LeftUpLeg  31.221 19.0228 6.24192
LeftLeg  -5.95203 -11.2933 -1.04444
LeftFoot  -0.273557 3.95517 -13.394
LeftToes  9.54166e-015 4.2066e-011 -8.07781e-011
362
root  4.15204 38.3331 -14.0366 -8.51474 10.1592 4.42562
RightUpLeg  1.09417 8.14303 -1.83327
RightLeg  -42.2652 -17.8054 0.346775
RightFoot  25.6398 3.04966 -14.2485
RightToes  -1.27222e-014 -6.36111e-015 6.36111e-015
Spine  -28.3754 -26.2423 -20.0567
Spine1  9.46217 -18.2849 45.0665
HEad  1.12875 -6.58456 -15.5236
LeftShoulder1  6.36111e-015 -1.33558e-015 6.49777e-015
LeftArm  21.3513 -42.0559 -54.6365
LeftForeArm  -19.7663 -55.065 19.4453
LeftHand  -1.12492 -0.821627 -10.8564
RightShoulder  -4.77083e-015 -6.36111e-015 -3.18055e-015
RightArm  60.114 -46.1134 -10.8218
RightForeArm  -27.7591 6.86282 -21.1005
RightHand  3.8638 -6.26063 -14.6987
LeftUpLeg  37.1718 19.9271 9.57533
LeftLeg  -10.5324 -14.361 -0.533376
LeftFoot  -0.585553 4.6289 -15.8176
LeftToes  9.54166e-015 4.2066e-011 -8.07781e-011
363
root  4.44986 38.8738 -12.6029 -8.7392 7.75617 4.30388
RightUpLeg  -0.0895716 10.1303 -1.06365
RightLeg  -52.1936 -16.0445 0.0896821
RightFoot  23.5426 3.05204 -13.8436
RightToes  -1.27222e-014 -6.36111e-015 6.36111e-015
Spine  -30.4815 -27.9617 -19.3229
Spine1  8.30268 -19.8498 47.2764
HEad  4.36714 -1.79013 -14.7014
LeftShoulder1  6.36111e-015 -1.33558e-015 6.49777e-015
LeftArm  23.3663 -44.7422 -54.0506
LeftForeArm  -15.3991 -50.8211 13.9004
LeftHand  -1.07957 -0.811366 -10.2679
RightShoulder  -4.77083e-015 -6.36111e-015 -3.18055e-015
RightArm  61.0398 -45.7092 -11.3732
RightForeArm  -28.7707 9.82097 -23.8607
RightHand  3.2261 -5.21508 -12.9657
LeftUpLeg  41.9963 19.1022 9.93325
LeftLeg  -13.4441 -16.3307 0.0394814
LeftFoot  -1.64373 5.00579 -17.6824
LeftToes  9.54166e-015 4.2066e-011 -8.07781e-011
364
root  4.7095 39.0215 -11.2544 -9.36397 4.97107 4.80536
RightUpLeg  -0.426144 11.8563 -1.17577
RightLeg  -64.4613 -14.9372 0.495521
RightFoot  22.9067 3.36267 -14.1675
RightToes  -1.27222e-014 -6.36111e-015 6.36111e-015
Spine  -31.2056 -29.219 -19.6782
Spine1  7.16467 -20.4594 50.3028
HEad  6.23792 1.83028 -14.0551
LeftShoulder1  6.36111e-015 -1.33558e-015 6.49777e-015
LeftArm  24.3288 -46.8595 -53.1954
LeftForeArm  -12.7388 -47.1056 10.3423
LeftHand  -1.13161 -1.0362 -10.0749
RightShoulder  -4.77083e-015 -6.36111e-015 -3.18055e-015
RightArm  60.742 -44.1288 -11.5126
RightForeArm  -29.2081 12.3106 -26.1716
RightHand  2.49926 -4.20346 -10.4583
LeftUpLeg  46.2353 17.8116 8.07526
LeftLeg  -14.8026 -16.7095 0.330923
LeftFoot  -2.42652 4.65411 -16.8776
LeftToes  9.54166e-015 4.2066e-011 -8.07781e-011
365
root  4.97753 38.9031 -10.0199 -10.4098 1.43605 5.17758
RightUpLeg  0.246839 13.6468 -0.712746
RightLeg  -78.3369 -13.3714 0.314272
RightFoot  23.8657 4.6227 -16.1591
RightToes  -1.27222e-014 -6.36111e-015 6.36111e-015
Spine  -31.4966 -29.0082 -19.1973
Spine1  6.36301 -20.1013 52.5255
HEad  7.0681 4.52941 -13.7146
LeftShoulder1  6.36111e-015 -1.33558e-015 6.49777e-015
LeftArm  24.06 -48.2963 -51.566
LeftForeArm  -11.0221 -43.5965 7.7798
LeftHand  -1.27039 -1.45199 -10.3272
RightShoulder  -4.77083e-015 -6.36111e-015 -3.18055e-015
RightArm  59.1609 -42.1716 -10.9111
RightForeArm  -29.5972 13.4659 -27.3866
RightHand  1.97298 -3.50286 -8.40214
LeftUpLeg  51.0797 17.3927 7.13207
LeftLeg  -16.6957 -17.173 0.666704
LeftFoot  -2.27509 3.9982 -14.4371
LeftToes  9.54166e-015 4.2066e-011 -8.07781e-011
366
root  5.21051 38.6195 -8.82152 -11.2388 -2.27981 5.4353
RightUpLeg  1.49376 15.6405 0.00330042
RightLeg  -92.6026 -11.6124 -2.37628
RightFoot  25.1422 3.56733 -14.8767
RightToes  -1.27222e-014 -6.36111e-015 6.36111e-015
Spine  -32.4437 -28.2905 -18.2028
Spine1  6.58484 -19.6313 53.7081
HEad  7.13086 6.45152 -13.3983
LeftShoulder1  6.36111e-015 -1.33558e-015 6.49777e-015
LeftArm  22.9398 -49.3482 -49.0437
LeftForeArm  -9.81532 -39.8248 5.63616
LeftHand  -1.40998 -1.87603 -10.585
RightShoulder  -4.77083e-015 -6.36111e-015 -3.18055e-015
RightArm  56.383 -39.9669 -9.73578
RightForeArm  -30.5306 12.6338 -27.1114
RightHand  1.70225 -2.89449 -7.64499
LeftUpLeg  56.1958 18.3947 8.31296
LeftLeg  -19.6359 -18.5625 1.52841
LeftFoot  -2.98643 3.46989 -12.8319
LeftToes  9.54166e-015 4.2066e-011 -8.07781e-011
367
root  5.3265 38.1527 -7.59035 -11.5758 -5.42302 6.07319
RightUpLeg  1.60504 14.1264 0.0783755
RightLeg  -103.131 -12.2666 -8.01707
RightFoot  28.1897 -0.624271 -9.90247
RightToes  -1.27222e-014 -6.36111e-015 6.36111e-015
Spine  -32.9507 -28.7602 -19.2704
Spine1  6.97126 -19.4142 56.8651
HEad  6.57651 8.7301 -13.984
LeftShoulder1  6.36111e-015 -1.33558e-015 6.49777e-015
LeftArm  19.6271 -48.1148 -45.0443
LeftForeArm  -8.31706 -37.4497 4.18154
LeftHand  -1.31783 -1.60198 -10.3849
RightShoulder  -4.77083e-015 -6.36111e-015 -3.18055e-015
RightArm  52.4271 -36.4806 -7.85427
RightForeArm  -30.4387 10.6673 -25.3186
RightHand  1.51124 -1.99826 -7.80868
LeftUpLeg  60.639 20.2568 9.78788
LeftLeg  -22.2747 -19.3415 2.27338
LeftFoot  -6.2578 2.84729 -11.8152
LeftToes  9.54166e-015 4.2066e-011 -8.07781e-011
368
root  5.34879 37.6365 -6.42885 -11.7616 -8.03923 6.46922
RightUpLeg  0.317116 13.749 1.24175
RightLeg  -105.499 -12.4435 -10.2007
RightFoot  33.304 -2.95221 -8.42434
RightToes  -1.27222e-014 -6.36111e-015 6.36111e-015
Spine  -31.2868 -29.6347 -21.9391
Spine1  6.68102 -19.1329 62.9622
HEad  5.04009 12.3042 -16.6281
LeftShoulder1  6.36111e-015 -1.33558e-015 6.49777e-015
LeftArm  13.1963 -41.8539 -39.9028
LeftForeArm  -6.25821 -37.8041 3.56992
LeftHand  -0.808458 -0.0628932 -9.60055
RightShoulder  -4.77083e-015 -6.36111e-015 -3.18055e-015
RightArm  47.5558 -31.5261 -5.30341
RightForeArm  -27.0475 8.96747 -22.4379
RightHand  1.43808 -1.0591 -8.89356
LeftUpLeg  63.1161 21.5831 9.33016
LeftLeg  -22.0213 -17.0352 1.40855
LeftFoot  -10.5589 2.16074 -10.6321
LeftToes  9.54166e-015 4.2066e-011 -8.07781e-011
369
root  5.31619 37.1823 -5.31752 -11.7315 -10.3034 5.36175
RightUpLeg  -0.996708 16.0603 5.27457
RightLeg  -100.328 -12.8844 -9.63642
RightFoot  38.4777 -0.752191 -12.2033
RightToes  -1.27222e-014 -6.36111e-015 6.36111e-015
Spine  -28.4854 -28.6878 -22.0051
Spine1  6.14347 -18.7635 67.601
HEad  2.22066 15.909 -20.6794
LeftShoulder1  6.36111e-015 -1.33558e-015 6.49777e-015
LeftArm  6.96136 -31.6294 -36.2949
LeftForeArm  -5.44913 -38.8165 3.60356
LeftHand  -0.120245 1.82116 -8.2867
RightShoulder  -4.77083e-015 -6.36111e-015 -3.18055e-015
RightArm  42.784 -27.4839 -3.79137
RightForeArm  -21.4861 7.17838 -18.8511
RightHand  1.69254 -0.714109 -11.3249
LeftUpLeg  61.8888 21.5898 8.73377
LeftLeg  -14.0311 -12.2573 -0.528304
LeftFoot  -12.9607 1.96891 -10.8076
LeftToes  9.54166e-015 4.2066e-011 -8.07781e-011
370
root  5.21601 36.7449 -4.0592 -10.9844 -11.919 2.68928
RightUpLeg  -1.13169 24.0075 10.9316
RightLeg  -94.0818 -11.7625 -3.39085
RightFoot  40.0923 2.69627 -16.2162
RightToes  -1.27222e-014 -6.36111e-015 6.36111e-015
Spine  -26.9039 -25.606 -17.6347
Spine1  5.68773 -18.4847 67.2921
HEad  -1.19452 17.3638 -23.8696
LeftShoulder1  6.36111e-015 -1.33558e-015 6.49777e-015
LeftArm  4.01602 -22.2237 -34.8072
LeftForeArm  -7.45694 -38.0539 4.09013
LeftHand  0.120677 2.13166 -6.85605
RightShoulder  -4.77083e-015 -6.36111e-015 -3.18055e-015
RightArm  39.1873 -27.8684 -6.63073
RightForeArm  -18.1241 4.56653 -15.9233
RightHand  2.09197 -0.813227 -13.9244
LeftUpLeg  56.914 20.1797 9.76081
LeftLeg  1.34745 -7.14095 -1.08754
LeftFoot  -8.9647 2.81582 -12.9963
LeftToes  9.54166e-015 4.2066e-011 -8.07781e-011
371
root  5.0602 36.2716 -2.70956 -9.6388 -12.921 -0.202752
RightUpLeg  -2.76149 25.0317 14.887
RightLeg  -86.1562 -12.203 -1.63973
RightFoot  37.0982 3.88988 -17.1146
RightToes  -1.27222e-014 -6.36111e-015 6.36111e-015
Spine  -26.3765 -21.6126 -11.6335
Spine1  5.63277 -18.0031 64.2337
HEad  -4.73968 16.6929 -25.1268
LeftShoulder1  6.36111e-015 -1.33558e-015 6.49777e-015
LeftArm  4.15548 -16.163 -33.6288
LeftForeArm  -11.8281 -38.033 5.62397
LeftHand  -0.25987 0.776513 -6.21217
RightShoulder  -4.77083e-015 -6.36111e-015 -3.18055e-015
RightArm  38.6803 -32.6948 -15.5677
RightForeArm  -20.6413 2.85158 -15.8459
RightHand  2.229 -0.649337 -15.225
LeftUpLeg  49.2736 18.1751 11.3303
LeftLeg  18.2559 -4.20967 0.0502896
LeftFoot  3.9253 4.30875 -12.8843
LeftToes  9.54166e-015 4.2066e-011 -8.07781e-011
